<svg xmlns="http://www.w3.org/2000/svg" viewBox="0 -0.5 20 20" shape-rendering="crispEdges">
<metadata>Made with Pixels to Svg https://codepen.io/shshaw/pen/XbxvNj</metadata>
<path stroke="#1c121c" d="M1 3h18M0 4h1M19 4h1M0 5h1M19 5h1M0 6h1M19 6h1M0 7h1M19 7h1M0 8h1M19 8h1M0 9h1M19 9h1M0 10h1M19 10h1M0 11h1M19 11h1M0 12h1M19 12h1M0 13h1M19 13h1M0 14h1M19 14h1M0 15h1M19 15h1M1 16h2M5 16h10M17 16h2M2 17h1M5 17h1M14 17h1M17 17h1" />
<path stroke="#bf6f4a" d="M1 4h18" />
<path stroke="#8a4836" d="M1 5h18M1 6h1M7 6h1M14 6h1M18 6h1M1 7h1M3 7h3M7 7h1M14 7h1M18 7h1M1 8h1M7 8h1M18 8h1M1 9h1M3 9h3M7 9h1M18 9h1M1 10h1M12 10h1M17 10h2M1 11h1M3 11h3M12 11h1M18 11h1M1 12h1M9 12h4M18 12h1M1 13h4M9 13h1M14 13h2M18 13h1M1 14h4M9 14h1M14 14h5M1 15h18" />
<path stroke="#d28559" d="M2 6h5M2 7h1M6 7h1M2 8h5M2 9h1M6 9h1M2 10h5M2 11h1M6 11h1M2 12h5M10 13h4M10 14h4" />
<path stroke="#ab5130" d="M8 6h1M11 6h1M9 10h1M11 11h1" />
<path stroke="#cf752b" d="M9 6h2M15 6h3M8 7h4M15 7h3M8 8h4M17 8h1M8 9h4M17 9h1M8 10h1M10 10h2M8 11h3" />
<path stroke="#a08662" d="M12 6h2M12 7h2M12 8h1M12 9h1M17 11h1M17 12h1M16 13h2" />
<path stroke="#c7b08b" d="M13 8h1M16 8h1M13 12h1" />
<path stroke="#e4d2aa" d="M14 8h2M13 9h4M13 10h4M13 11h4M14 12h3" />
<path stroke="#5d2c28" d="M7 10h1M7 11h1M7 12h2M5 13h4M5 14h4" />
<path stroke="#858585" d="M3 16h2M15 16h2M3 17h2M15 17h2" />
</svg>